# xmcd CD database file
#
# Track frame offsets:
#	150
#	13937
#	35095
#	48510
#	65538
#	76775
#	92966
#	104873
#	118151
#	139070
#	150469
#	167957
#	183386
#
# Disc length: 2644 seconds
#
# Revision: 0
# Processed by: cddbd v1.5.1PL2 Copyright (c) Steve Scherf et al.
# Submitted via: CDex 1.51
#
DISCID=b80a520d
DTITLE=Joël Daydé - Spleen Blues
DYEAR=2005
DGENRE=Blues
TTITLE0=Pean de couleur
TTITLE1=Six cordes
TTITLE2=St James Infirmary
TTITLE3=Come on my kitchen
TTITLE4=I am a king bee
TTITLE5=Who's been talking
TTITLE6=Roll and thumble
TTITLE7=Little red rooster
TTITLE8=Bâton de rouge
TTITLE9=Saturday night
TTITLE10=I don't want you
TTITLE11=Écoute mon train arrive
TTITLE12=Mamy Blue
EXTD=YEAR: 2005
EXTT0=
EXTT1=
EXTT2=
EXTT3=
EXTT4=
EXTT5=
EXTT6=
EXTT7=
EXTT8=
EXTT9=
EXTT10=
EXTT11=
EXTT12=
PLAYORDER=
